<?xml version="1.0" standalone="no"?>
<!DOCTYPE svg PUBLIC "-//W3C//DTD SVG 20010904//EN"
 "http://www.w3.org/TR/2001/REC-SVG-20010904/DTD/svg10.dtd">
<svg version="1.0" xmlns="http://www.w3.org/2000/svg"
 width="200.000000pt" height="200.000000pt" viewBox="0 0 200.000000 200.000000"
 preserveAspectRatio="xMidYMid meet">

<g transform="translate(0.000000,200.000000) scale(0.100000,-0.100000)"
fill="#197BDA" stroke="none">
<path d="M901 1984 c-264 -45 -468 -220 -557 -479 -25 -71 -28 -94 -28 -210 1
-149 21 -228 89 -352 46 -81 166 -204 247 -251 251 -148 554 -127 789 54 112
86 208 236 245 384 25 98 15 291 -19 389 -14 41 -30 77 -34 80 -4 3 -9 12 -11
19 -11 57 -150 207 -247 267 -89 56 -163 83 -275 101 -97 16 -88 16 -199 -2z
m151 -421 c16 -15 18 -36 18 -255 0 -225 -1 -239 -20 -258 -11 -11 -29 -20
-40 -20 -11 0 -29 9 -40 20 -19 19 -20 33 -20 259 0 237 0 240 22 255 29 21
57 20 80 -1z m281 -161 c16 -14 19 -14 31 3 19 27 74 24 98 -4 16 -21 18 -40
15 -182 -2 -145 -4 -159 -22 -173 -28 -21 -61 -20 -85 4 l-21 21 -26 -21 c-31
-24 -63 -25 -108 -4 -50 23 -65 65 -65 178 0 135 22 180 93 195 39 9 66 3 90
-17z m-617 -3 l22 -21 11 21 c16 29 86 30 101 2 6 -11 10 -87 10 -175 0 -143
-2 -158 -20 -176 -27 -27 -56 -25 -85 5 -14 13 -25 20 -25 15 0 -12 -53 -40
-75 -40 -10 0 -32 7 -50 16 -52 24 -65 64 -65 192 l0 111 34 35 c28 31 40 36
77 36 30 0 49 -6 65 -21z"/>
<path d="M1287 1314 c-4 -4 -7 -45 -7 -91 0 -67 3 -85 16 -90 8 -3 22 1 30 9
21 21 28 117 12 148 -14 25 -38 37 -51 24z"/>
<path d="M665 1297 c-3 -12 -5 -51 -3 -86 2 -47 7 -67 20 -75 14 -8 21 -7 34
6 21 21 25 138 5 161 -20 24 -50 21 -56 -6z"/>
<path d="M351 376 c-15 -18 -17 -254 -2 -269 5 -5 16 -7 24 -4 20 8 23 260 3
276 -10 8 -16 7 -25 -3z"/>
<path d="M1279 373 c-1 -4 -2 -12 -4 -18 -1 -5 -3 -20 -3 -32 -1 -12 -11 -24
-22 -28 -25 -8 -26 -25 -1 -32 23 -6 31 -31 31 -94 0 -28 6 -51 14 -58 22 -18
70 -10 74 13 3 14 -1 18 -15 14 -22 -6 -23 -1 -26 72 -2 40 1 45 21 48 27 4
30 32 2 32 -20 0 -21 2 -24 55 -1 23 -7 31 -24 33 -12 2 -23 0 -23 -5z"/>
<path d="M1614 366 c-8 -21 2 -35 24 -32 9 2 17 11 17 22 0 23 -33 31 -41 10z"/>
<path d="M124 273 c-48 -52 -20 -173 40 -173 12 0 27 5 34 12 8 8 15 8 26 -2
9 -7 23 -10 31 -6 21 8 21 154 0 182 -15 19 -15 19 -30 0 -12 -16 -17 -17 -31
-5 -26 21 -45 19 -70 -8z m92 -60 c7 -35 -8 -83 -25 -83 -26 0 -41 32 -35 73
12 77 46 83 60 10z"/>
<path d="M476 285 c-24 -18 -35 -120 -17 -153 14 -26 56 -39 75 -22 12 9 20 8
39 -5 33 -21 38 -11 44 87 4 84 -5 112 -35 101 -30 -12 -41 -35 -27 -58 16
-25 8 -92 -11 -99 -34 -13 -45 4 -40 63 3 31 5 57 5 59 1 1 8 2 17 2 9 0 12 5
8 12 -5 7 -2 8 7 3 10 -5 11 -5 4 2 -18 19 -50 22 -69 8z"/>
<path d="M690 280 c-6 -11 -9 -54 -7 -97 4 -67 7 -78 22 -78 22 0 38 47 30 90
-7 42 16 75 42 59 14 -9 18 -25 19 -80 1 -66 2 -69 25 -69 23 0 24 4 25 67 2
77 7 88 37 88 20 0 22 -5 23 -71 1 -72 12 -96 37 -86 10 4 15 26 16 81 1 64
-1 78 -19 96 -24 24 -48 25 -78 4 -21 -15 -25 -15 -42 1 -17 16 -22 16 -49 2
-27 -13 -33 -14 -45 -1 -19 18 -23 18 -36 -6z"/>
<path d="M1070 293 c-38 -14 -50 -36 -50 -93 0 -64 12 -87 55 -99 37 -10 99 9
103 32 4 21 -17 22 -46 2 -29 -21 -62 -4 -62 30 0 21 5 25 33 26 17 1 36 1 40
0 4 -1 16 3 26 8 22 12 17 67 -9 81 -23 12 -72 19 -90 13z m60 -38 c19 -23 4
-45 -30 -45 -25 0 -30 4 -30 24 0 35 38 48 60 21z"/>
<path d="M1444 289 c-8 -13 -13 -159 -7 -176 3 -7 14 -13 24 -13 20 0 20 0 23
71 1 51 17 76 49 81 14 2 22 10 22 22 0 32 -23 30 -43 -3 -19 -31 -32 -32 -32
0 0 20 -26 33 -36 18z"/>
<path d="M1622 291 c-9 -5 -12 -32 -10 -97 3 -81 5 -89 23 -89 19 0 20 7 20
94 0 93 -6 110 -33 92z"/>
<path d="M1749 271 c-28 -35 -23 -137 7 -155 33 -19 71 -23 102 -11 32 14 49
53 26 62 -19 7 -47 -4 -39 -16 9 -16 -28 -31 -48 -20 -13 8 -17 23 -17 63 0
61 19 88 45 66 8 -7 15 -19 15 -27 0 -18 52 -14 58 5 7 22 -43 56 -87 58 -34
1 -46 -4 -62 -25z"/>
</g>
</svg>
