<svg version="1.0" xmlns="http://www.w3.org/2000/svg"
 width="500.000000pt" height="262.000000pt" viewBox="0 0 500.000000 262.000000"
 preserveAspectRatio="xMidYMid meet">

<g transform="translate(0.000000,262.000000) scale(0.100000,-0.100000)"
fill="#000000" stroke="none">
<path d="M2300 2388 c-85 -44 -218 -113 -295 -153 -116 -60 -143 -78 -157
-106 -26 -51 -2 -125 56 -176 38 -34 51 -58 59 -113 1 -10 -12 -16 -47 -22
-27 -3 -62 -12 -78 -19 -16 -6 -30 -10 -31 -8 -1 2 -18 35 -37 73 -44 86 -121
171 -202 224 -233 152 -520 110 -719 -106 -169 -182 -234 -479 -174 -797 34
-181 137 -356 265 -450 47 -35 50 -39 50 -83 0 -94 22 -222 44 -255 l22 -32
119 -1 c66 -1 134 2 150 7 17 5 69 11 117 13 78 5 92 3 144 -21 124 -57 268
-40 370 43 l56 46 37 -16 c31 -14 54 -15 166 -6 72 6 191 10 265 9 149 -1 164
-1 465 5 176 3 215 1 240 -12 45 -23 134 -20 184 6 40 21 44 22 92 6 63 -21
149 -15 187 13 33 24 73 118 81 193 4 34 11 54 18 53 7 -2 95 -6 195 -9 208
-8 237 -3 299 53 53 48 79 122 86 249 5 91 4 106 -16 147 -17 35 -33 51 -67
67 -55 27 -83 23 -189 -26 -48 -22 -88 -34 -107 -32 l-32 3 61 70 c166 192
327 394 344 430 24 52 24 106 -1 156 -37 72 -43 73 -376 88 -163 7 -322 17
-353 22 -124 20 -191 9 -235 -40 -23 -26 -36 -27 -36 -3 0 9 -13 40 -30 68
-29 52 -72 87 -122 99 -24 6 -28 12 -28 41 0 23 -9 43 -27 63 -37 39 -590 321
-629 321 -17 0 -96 -35 -184 -82z m305 -34 c411 -209 542 -284 385 -220 -34
13 -70 22 -79 19 -12 -4 -13 -3 -3 5 10 6 -23 28 -118 76 -72 37 -165 85 -206
106 -41 22 -81 40 -90 40 -9 0 -50 -17 -92 -39 -42 -21 -93 -46 -112 -56 -19
-10 -42 -24 -51 -32 -9 -7 -25 -15 -35 -18 -11 -2 -77 -33 -148 -69 -71 -36
-133 -63 -138 -60 -6 4 -6 10 -1 14 4 5 112 61 238 126 127 64 250 128 275
141 25 12 50 23 55 23 6 0 60 -25 120 -56z m33 -81 c70 -36 146 -76 169 -89
23 -12 39 -24 36 -28 -4 -3 -1 -6 6 -6 7 0 9 -4 6 -10 -3 -5 2 -10 12 -11 16
0 16 -1 -2 -8 l-20 -8 20 -5 c17 -5 16 -6 -5 -8 l-25 -2 25 -8 c15 -5 -31 -8
-117 -9 -79 -1 -143 2 -143 7 0 4 5 23 11 42 20 66 26 98 20 107 -3 5 -35 29
-70 53 l-65 43 -63 -34 c-35 -19 -72 -41 -83 -49 -22 -17 -22 -21 16 -147 6
-23 6 -23 -114 -23 -70 0 -123 4 -127 10 -3 6 1 10 10 10 12 0 15 5 10 18 -15
37 -15 54 0 48 8 -3 15 -2 15 2 0 4 12 13 28 20 15 6 54 27 86 46 33 19 63 33
67 30 4 -2 10 3 13 12 3 8 10 12 16 9 5 -3 10 -1 10 5 0 6 3 9 8 7 4 -3 25 5
47 18 22 13 48 24 58 24 10 1 75 -29 145 -66z m-80 -30 c15 -9 28 -18 30 -19
5 -3 -29 -114 -35 -114 -4 0 -21 5 -39 12 -26 9 -39 8 -72 -5 l-41 -16 -11 54
c-6 30 -12 58 -13 62 -1 3 23 21 53 39 50 30 57 31 78 18 12 -8 34 -22 50 -31z
m-1169 -153 c159 -45 277 -159 336 -329 20 -55 23 -76 15 -89 -10 -15 -11 -14
-7 6 3 12 1 22 -3 22 -5 0 -12 9 -15 21 -16 48 -91 168 -134 212 -194 202
-517 169 -681 -69 -90 -129 -124 -248 -124 -434 -1 -145 14 -211 74 -338 45
-94 45 -93 28 -89 -16 3 -63 69 -87 122 -58 129 -75 373 -37 520 59 230 208
397 403 450 71 19 149 18 232 -5z m1431 -51 c91 -6 166 -12 168 -14 1 -1 -2
-13 -8 -26 l-11 -24 -480 0 -481 0 -14 28 c-14 26 -14 27 13 28 15 1 87 5 158
8 209 12 477 12 655 0z m361 -62 c93 -62 86 -187 -12 -241 -94 -52 -220 57
-189 164 26 90 125 128 201 77z m-762 -71 c-5 -4 -190 -66 -198 -66 -18 0 51
36 98 51 50 16 111 25 100 15z m1263 -67 c59 -5 207 -13 329 -17 164 -5 223
-10 227 -19 6 -19 -434 -17 -603 2 -168 19 -172 19 -186 -6 -6 -12 -11 -61
-10 -110 0 -49 -4 -91 -9 -94 -21 -13 -32 40 -28 136 5 144 -14 137 280 108z
m-2212 -88 c59 -128 66 -357 16 -506 -50 -149 -139 -235 -243 -235 -59 0 -114
23 -150 62 -23 24 -73 124 -73 146 0 25 17 11 39 -31 63 -123 158 -168 251
-119 160 85 224 478 114 700 -7 13 -9 32 -7 43 5 18 6 19 19 2 8 -10 23 -38
34 -62z m1123 35 c4 -10 17 -13 45 -9 44 6 115 -24 126 -53 6 -16 8 -15 21 2
22 28 29 9 44 -109 16 -124 13 -184 -9 -178 -8 2 -27 6 -42 9 -27 4 -27 5 -13
33 8 15 15 53 15 83 0 47 -4 61 -29 88 -22 25 -37 32 -64 32 -65 0 -104 -63
-95 -155 6 -58 27 -85 73 -93 24 -5 32 -11 29 -21 -3 -8 -9 -14 -12 -13 -4 1
-34 -11 -66 -26 -72 -33 -168 -43 -246 -26 -30 6 -68 14 -85 17 l-30 5 39 -40
c21 -22 35 -45 31 -51 -3 -6 -2 -10 3 -9 6 2 11 -1 13 -7 1 -5 9 -16 18 -24 9
-7 4 -6 -11 3 -16 9 -28 13 -28 9 0 -5 -5 -1 -10 7 -8 11 -9 9 -8 -12 1 -16 7
-28 12 -28 5 0 7 -2 4 -5 -3 -3 -13 -2 -22 1 -11 4 -14 9 -7 13 8 5 6 13 -4
27 -15 19 -15 19 -9 -1 3 -11 -9 4 -27 34 -19 31 -28 56 -22 60 21 13 33 47
21 59 -9 9 -4 12 21 12 23 0 41 9 62 29 25 26 29 37 29 86 0 119 -49 163 -149
134 -24 -7 -23 18 2 47 20 23 33 28 86 32 41 3 64 9 68 18 4 10 24 14 67 15
33 0 79 4 101 8 22 5 43 9 46 10 4 0 9 -5 12 -13z m-453 -57 c0 -11 7 -27 15
-35 18 -18 19 -46 4 -111 -9 -38 -8 -57 4 -90 l15 -43 -25 0 c-14 0 -41 -10
-61 -22 -31 -19 -35 -20 -44 -5 -5 10 -15 17 -23 17 -8 0 -19 8 -24 18 -25 42
-40 54 -60 47 -20 -6 -21 -14 -21 -133 0 -70 5 -156 10 -192 11 -69 50 -180
62 -180 5 0 8 -10 8 -22 0 -21 0 -21 -21 -2 -34 30 -76 129 -90 207 -7 47 -10
141 -7 274 4 164 2 207 -9 223 -21 30 -12 54 22 61 17 4 78 7 138 8 102 1 107
0 107 -20z m-822 -35 c96 -67 106 -354 17 -494 -20 -32 -30 -39 -67 -42 -24
-3 -51 -8 -61 -12 -14 -7 -22 2 -43 50 -22 49 -27 79 -32 171 -9 214 40 343
133 343 17 0 41 -7 53 -16z m2576 -61 c-15 -21 -40 -51 -55 -68 -15 -16 -96
-111 -180 -210 -84 -99 -163 -191 -175 -205 -12 -14 -52 -60 -89 -103 -47 -54
-66 -84 -62 -97 6 -22 -15 -34 -32 -17 -24 24 -10 59 55 135 37 42 76 88 88
102 40 48 201 235 206 240 3 3 50 56 104 118 100 115 130 142 154 142 10 0 5
-12 -14 -37z m-704 -39 c0 -80 -19 -168 -31 -138 -7 16 -8 17 -8 2 -1 -20 -18
-23 -41 -8 -10 6 -20 5 -30 -4 -23 -20 -50 -27 -50 -13 0 7 -6 3 -12 -8 -8
-13 -14 -95 -18 -221 l-5 -201 -29 -41 c-16 -23 -32 -39 -37 -36 -15 9 -10 45
11 71 19 24 20 41 20 323 0 251 -2 299 -15 310 -28 24 -3 30 121 30 l124 0 0
-66z m-946 50 c20 -8 21 -48 1 -64 -37 -30 -72 14 -39 51 20 22 17 21 38 13z
m443 -10 c9 -24 -10 -49 -38 -49 -27 0 -37 28 -19 50 17 20 49 19 57 -1z m657
-170 c34 -42 80 -64 136 -64 22 0 40 -4 40 -9 0 -5 -36 -51 -80 -104 -77 -92
-80 -94 -112 -88 -30 6 -33 10 -32 44 2 192 5 257 12 257 4 0 20 -16 36 -36z
m-568 -98 l36 7 -7 -34 c-9 -41 -43 -92 -56 -83 -5 3 -30 7 -57 9 -71 6 -73 7
-67 24 3 11 0 10 -10 -3 -8 -11 -15 -15 -15 -9 0 6 18 33 41 62 l40 51 30 -16
c20 -10 41 -13 65 -8z m-149 -121 c4 -4 2 -5 -4 -1 -7 4 -13 3 -13 -1 0 -5 -9
-9 -19 -9 -14 0 -17 4 -10 12 11 13 34 13 46 -1z m-267 -29 c0 -2 -7 -7 -16
-10 -8 -3 -12 -2 -9 4 6 10 25 14 25 6z m105 -26 c9 -15 -36 -99 -65 -120 -62
-44 -129 -41 -182 7 -29 28 -39 54 -27 74 5 10 11 6 19 -12 29 -65 128 -77
175 -23 14 16 27 41 30 56 7 28 37 39 50 18z m1753 -42 c18 -18 14 -28 -11
-28 -13 0 -64 -20 -113 -44 -87 -44 -91 -45 -194 -46 -58 -1 -141 -1 -185 -1
-75 2 -78 3 -55 16 17 10 58 14 130 15 145 0 209 13 303 60 86 43 106 47 125
28z m-2381 -200 c15 -29 29 -56 31 -60 2 -5 -18 -8 -45 -8 -26 0 -63 -4 -81
-9 -17 -5 -32 -7 -32 -3 0 12 83 132 91 132 5 0 21 -24 36 -52z m657 -60 c3
-7 7 -82 10 -165 l5 -153 -38 0 -39 0 -6 108 c-4 59 -9 133 -12 165 l-6 57 41
0 c25 0 43 -5 45 -12z m257 -85 c36 -22 55 -64 40 -91 -13 -25 -30 -31 -99
-33 -61 -3 -69 -9 -42 -34 19 -17 73 -18 113 -1 14 7 17 3 17 -21 0 -24 -6
-31 -33 -41 -81 -29 -159 1 -186 71 -12 33 -12 42 3 81 29 76 119 109 187 69z
m165 2 c5 -13 8 -13 27 0 35 25 99 19 128 -11 21 -23 24 -36 27 -120 l4 -94
-41 0 -41 0 0 79 c0 88 -11 108 -55 97 -33 -8 -47 -46 -43 -116 3 -54 2 -55
-26 -58 -16 -2 -32 0 -36 5 -4 4 -11 59 -15 121 l-7 112 36 0 c23 0 39 -6 42
-15z m449 -15 c31 -29 31 -34 -2 -55 -20 -13 -28 -15 -31 -6 -2 7 -15 17 -29
22 -57 21 -99 -55 -56 -103 21 -23 44 -23 75 2 24 19 26 19 42 1 23 -25 20
-37 -13 -60 -53 -38 -148 -22 -185 31 -21 29 -20 107 0 137 45 64 147 80 199
31z m238 17 c42 -18 60 -41 60 -78 0 -39 -13 -47 -95 -55 -47 -4 -65 -10 -62
-19 13 -32 87 -40 122 -12 9 7 12 2 12 -21 0 -39 -22 -52 -85 -52 -83 0 -131
46 -129 122 2 55 20 84 68 108 48 24 66 25 109 7z m-2281 -16 c4 -4 -13 -32
-37 -64 -25 -31 -45 -61 -45 -66 0 -6 27 -38 60 -71 33 -33 60 -63 60 -65 0
-2 -19 -9 -42 -16 l-43 -11 -51 58 c-64 72 -83 70 -76 -10 l4 -56 -39 0 -40 0
-7 98 c-4 53 -9 123 -13 155 l-6 58 44 -3 44 -3 3 -57 c2 -32 6 -58 9 -58 8 0
38 35 76 88 28 38 34 42 61 36 17 -3 34 -9 38 -13z m1046 4 c3 -2 -4 -35 -16
-72 -11 -38 -26 -87 -33 -110 -11 -41 -14 -43 -49 -43 -35 0 -38 3 -54 43 -9
23 -16 48 -16 54 0 7 -4 15 -10 18 -5 3 -17 -20 -26 -54 -16 -56 -19 -59 -51
-63 -18 -2 -38 1 -42 6 -5 6 -25 56 -45 110 -39 107 -38 116 15 116 24 0 28
-6 44 -65 10 -36 22 -62 26 -58 5 5 14 33 22 63 14 53 16 55 50 58 34 3 35 2
52 -50 10 -29 20 -57 23 -62 7 -13 19 14 27 64 4 25 10 49 12 54 5 8 61 1 71
-9z m-481 -6 c66 -25 97 -92 73 -164 -17 -52 -56 -75 -127 -75 -50 0 -64 4
-93 29 -33 27 -35 33 -35 89 0 46 5 65 20 82 39 44 107 60 162 39z m-280 -29
c35 -21 40 -38 46 -152 3 -71 -1 -78 -47 -78 -22 0 -24 6 -30 77 -8 82 -17
103 -47 103 -38 0 -50 -28 -48 -109 l2 -76 -39 0 -39 0 -7 95 c-4 52 -8 104
-10 115 -2 16 3 21 31 23 18 2 38 -1 43 -6 6 -6 23 -2 46 9 46 24 59 24 99 -1z"/>
<path d="M1934 1555 c0 -19 3 -32 8 -29 10 6 11 51 1 57 -5 3 -8 -10 -9 -28z"/>
<path d="M2642 748 c-21 -21 -13 -28 34 -28 38 0 45 3 42 18 -4 21 -57 29 -76
10z"/>
<path d="M3517 742 c-22 -24 -17 -28 33 -24 31 3 40 8 38 21 -5 23 -51 26 -71
3z"/>
<path d="M1797 722 c-20 -22 -22 -71 -4 -96 8 -11 26 -18 42 -18 52 0 75 72
35 112 -25 25 -52 26 -73 2z"/>
</g>
</svg>
